<?xml version="1.0" standalone="no"?><!DOCTYPE svg PUBLIC "-//W3C//DTD SVG 1.1//EN" "http://www.w3.org/Graphics/SVG/1.1/DTD/svg11.dtd"><svg t="1699678683845" class="icon" viewBox="0 0 1024 1024" version="1.1" xmlns="http://www.w3.org/2000/svg" p-id="6395" width="128" height="128" xmlns:xlink="http://www.w3.org/1999/xlink"><path d="M620.711903 513.938321c0-91.960162 0-181.956039 0-273.3224-16.949299 0-32.677128 0-51.030778 0 36.400239-46.21715 71.102613-90.273586 106.728427-135.504078 34.765592 44.921173 68.880939 88.991156 104.50901 135.020909-17.640185 0-33.237062 0-49.942519 0 0 82.382578 0 163.288555 0 245.711773C692.06739 486.467678 656.060008 495.41082 620.711903 513.938321z" fill="#d81e06" p-id="6396"></path><path d="M452.0972 376.558012c36.668917 0 109.460364 0 109.460364 0s-0.221264 119.909459 0 174.00407c0.029351 7.306238-2.278119 12.632387-6.886288 18.410095-49.671583 62.32429-63.961194 132.209949-43.501018 209.214449 0.966338 3.628283 2.013957 7.24302 3.287356 11.82861-20.841745 0-41.132586 0-62.367188 0C452.0972 652.738785 452.0972 515.121407 452.0972 376.558012z" fill="#d81e06" p-id="6397"></path><path d="M391.389495 520.393369c0 90.354867 0 179.707271 0 269.784429-36.303154 0-72.254091 0-108.886883 0 0-89.894276 0-179.501811 0-269.784429C318.794476 520.393369 354.397712 520.393369 391.389495 520.393369z" fill="#d81e06" p-id="6398"></path><path d="M121.690862 790.297461c0-59.418502 0-117.84583 0-176.86696 33.413171 0 66.307047 0 100.029537 0 0 58.946622 0 117.606504 0 176.86696C188.429149 790.297461 155.521726 790.297461 121.690862 790.297461z" fill="#d81e06" p-id="6399"></path><path d="M730.425141 528.277603c-102.386679 0.090312-185.934281 83.491157-186.166835 185.839454-0.234811 102.872106 83.470837 186.679355 186.433255 186.650004 102.483764-0.029351 185.992984-83.398588 186.076523-185.769462C916.856138 611.906487 833.299505 528.189549 730.425141 528.277603zM670.760539 756.125669l-50.199908-66.977614 24.903525 0c0 0 0-50.026057 0-75.421783l51.455244 0c0 24.880947 0 75.421783 0 75.421783l22.139979 0L670.760539 756.125669zM815.670608 739.763399l0 75.683688-51.186566 0L764.484042 740.467832l-25.420561 0c16.822862-23.986859 33.600568-45.205656 50.680819-68.203599 16.870276 22.530578 32.988704 44.072241 50.53632 67.499165L815.670608 739.763399 815.670608 739.763399z" fill="#d81e06" p-id="6400"></path></svg>